<svg width="80" height="40" viewBox="0 0 80 40" fill="none" xmlns="http://www.w3.org/2000/svg">
<path d="M69.9766 38.7921L66.2237 28.5756C66.2013 28.5162 66.1458 28.4766 66.0825 28.4766H63.2814C63.218 28.4766 63.1612 28.5162 63.1401 28.5756L59.6275 38.0713C59.5721 38.1822 59.4137 38.1822 59.3582 38.0713L55.8456 28.5756C55.8232 28.5162 55.7677 28.4766 55.7044 28.4766H52.9033C52.8399 28.4766 52.7831 28.5162 52.762 28.5756L49.0092 38.7921C48.9735 38.8911 49.0461 38.9954 49.1504 38.9954H51.5357C51.6281 38.9544 51.6704 38.9267 51.6915 38.8647L52.267 37.196C52.2842 37.1445 52.3291 37.1063 52.3819 37.097L54.2127 36.7551C54.2682 36.7445 54.3249 36.7445 54.3791 36.7551L56.1941 37.097C56.2469 37.1076 56.2905 37.1445 56.3089 37.196L56.8422 38.7419C56.8686 38.8198 56.9267 38.8832 57.002 38.9175L59.2157 39.9313C59.4189 40.0251 59.6539 40.0224 59.8559 39.9261L61.9587 38.9188C62.0313 38.8845 62.0867 38.8211 62.1131 38.7445L62.6464 37.196C62.6636 37.1445 62.7085 37.1063 62.7613 37.097L64.5987 36.7551C64.6542 36.7445 64.7109 36.7445 64.7651 36.7551L66.5735 37.097C66.6263 37.1076 66.6712 37.1445 66.6884 37.196L67.2639 38.8647C67.285 38.9254 67.351 38.965 67.4104 38.9901L69.8366 38.9954C69.9422 38.9954 70.0148 38.8911 69.9779 38.7921M55.3321 35.0627L54.3764 34.7921C54.3223 34.7762 54.2655 34.7762 54.2114 34.7921L53.2557 35.064C53.1382 35.097 53.0326 34.9848 53.0722 34.87L54.1454 31.7188C54.1916 31.5828 54.3843 31.5828 54.4305 31.7188L55.5156 34.87C55.5552 34.9848 55.4483 35.0983 55.3321 35.064M65.7115 35.0614L64.7637 34.7907C64.7096 34.7749 64.6529 34.7749 64.5987 34.7907L63.6338 35.0627C63.5163 35.0957 63.4107 34.9835 63.4503 34.8686L64.5235 31.7175C64.5697 31.5815 64.7624 31.5815 64.8086 31.7175L65.8937 34.8673C65.9333 34.9822 65.8264 35.0957 65.7102 35.0614" fill="white"/>
<path d="M2.71531 28.6271V38.8158C2.71531 38.899 2.64798 38.9663 2.56482 38.9663H0.150486C0.0673235 38.9663 0 38.899 0 38.8158V28.6271C0 28.5439 0.0673235 28.4766 0.150486 28.4766H2.56482C2.64798 28.4766 2.71531 28.5439 2.71531 28.6271Z" fill="white"/>
<path d="M19.6275 30.672V32.4924C19.6275 32.5756 19.6949 32.6429 19.778 32.6429H22.9329C23.0161 32.6429 23.0834 32.7103 23.0834 32.7934V34.4647C23.0834 34.5479 23.0161 34.6152 22.9329 34.6152H19.778C19.6949 34.6152 19.6275 34.6825 19.6275 34.7657V36.7657C19.6275 36.8489 19.6949 36.9162 19.778 36.9162H23.3857C23.4688 36.9162 23.5361 36.9835 23.5361 37.0667V38.8119C23.5361 38.8951 23.4688 38.9624 23.3857 38.9624H17.1974C17.1142 38.9624 17.0469 38.8951 17.0469 38.8119V28.6231C17.0469 28.54 17.1142 28.4727 17.1974 28.4727H23.3857C23.4688 28.4727 23.5361 28.54 23.5361 28.6231V30.3684C23.5361 30.4515 23.4688 30.5189 23.3857 30.5189H19.778C19.6949 30.5189 19.6275 30.5862 19.6275 30.6693" fill="white"/>
<path d="M46.6043 34.4911C46.9791 34.965 47.1666 35.5049 47.1666 36.1122C47.1666 36.9888 46.8551 37.6845 46.2307 38.1967C45.6076 38.7102 44.7377 38.9663 43.6223 38.9663H38.7989C38.7158 38.9663 38.6484 38.899 38.6484 38.8158V28.6271C38.6484 28.5439 38.7158 28.4766 38.7989 28.4766H43.4547C44.5397 28.4766 45.3885 28.7208 46.0023 29.2092C46.6161 29.6977 46.9224 30.3604 46.9224 31.1974C46.9224 31.8152 46.7574 32.3287 46.4274 32.7366C46.0974 33.1459 45.6591 33.4297 45.1113 33.5881C45.7291 33.7175 46.2267 34.0185 46.6016 34.4924M41.2489 32.5703C41.2489 32.6535 41.3162 32.7208 41.3994 32.7208H42.9517C43.3781 32.7208 43.7042 32.6284 43.9325 32.4449C44.1609 32.2601 44.2744 31.9894 44.2744 31.6304C44.2744 31.2713 44.1609 30.998 43.9325 30.8079C43.7042 30.6191 43.3768 30.5241 42.9517 30.5241H41.3994C41.3162 30.5241 41.2489 30.5914 41.2489 30.6746V32.569V32.5703ZM44.178 36.6138C44.4156 36.4198 44.5358 36.1386 44.5358 35.769C44.5358 35.3993 44.4117 35.1115 44.1635 34.9016C43.9154 34.6931 43.5722 34.5875 43.1365 34.5875H41.4007C41.3175 34.5875 41.2502 34.6548 41.2502 34.7379V36.7525C41.2502 36.8356 41.3175 36.903 41.4007 36.903H43.1669C43.6025 36.903 43.9404 36.8053 44.178 36.6112" fill="white"/>
<path d="M32.933 37.0983L31.0902 36.7511C31.0532 36.7445 31.0163 36.7445 30.9793 36.7511L29.1207 37.0983C29.0679 37.1089 29.023 37.1459 29.0059 37.1973L28.4303 38.866C28.4092 38.9267 28.3525 38.9676 28.2878 38.9676H25.8893C25.7837 38.9676 25.7111 38.8634 25.748 38.7643L29.5009 28.5756C29.5233 28.5162 29.5788 28.4766 29.6421 28.4766H32.4432C32.5066 28.4766 32.5634 28.5162 32.5845 28.5756L36.3373 38.7643C36.3743 38.8634 36.3004 38.9676 36.1961 38.9676H33.7672C33.7025 38.9676 33.6458 38.9267 33.6247 38.866L33.0491 37.1973C33.032 37.1459 32.9871 37.1089 32.9343 37.0983M32.2558 34.8686L31.1707 31.7175C31.1245 31.5815 30.9318 31.5815 30.8856 31.7175L29.8124 34.8686C29.7728 34.9835 29.8797 35.0957 29.9959 35.0627L30.9516 34.7907C31.0057 34.7749 31.0625 34.7749 31.1166 34.7907L32.0723 35.0614C32.1898 35.0944 32.2954 34.9822 32.2558 34.8673" fill="white"/>
<path d="M75.4972 36.8752H79.6474C79.7306 36.8752 79.7979 36.9426 79.7979 37.0257V38.8158C79.7979 38.899 79.7306 38.9663 79.6474 38.9663H72.4044C72.3212 38.9663 72.2539 38.899 72.2539 38.8158V37.1195C72.2539 37.0574 72.2737 36.9967 72.3093 36.9452L76.6496 30.8053C76.7209 30.7049 76.6496 30.5677 76.5268 30.5677H72.4057C72.3225 30.5677 72.2552 30.5003 72.2552 30.4172V28.6271C72.2552 28.5439 72.3225 28.4766 72.4057 28.4766H79.6487C79.7319 28.4766 79.7992 28.5439 79.7992 28.6271V30.3221C79.7992 30.3855 79.7794 30.4462 79.7438 30.4977L75.3758 36.6363C75.3045 36.7366 75.3758 36.8752 75.4985 36.8752" fill="white"/>
<path d="M14.7923 33.7214C14.7923 36.6891 12.4664 38.9663 9.41182 38.9663H5.16791C5.06495 38.9663 4.98047 38.8871 4.98047 38.7894V28.6535C4.98047 28.5558 5.06363 28.4766 5.16791 28.4766H9.41182C12.4664 28.4766 14.7923 30.7551 14.7923 33.7214ZM12.3555 33.7214C12.3555 31.9234 11.1529 30.7842 9.41182 30.7842H7.69973C7.59677 30.7842 7.51229 30.8634 7.51229 30.961V36.4818C7.51229 36.5795 7.59677 36.6587 7.69973 36.6587H9.41182C11.1529 36.6587 12.3555 35.5195 12.3555 33.7214Z" fill="white"/>
<path d="M50.0301 21.6572H54.204C54.3862 21.6572 54.5327 21.5067 54.5327 21.3206V16.2051L49.7951 21.0843C49.5892 21.2968 49.737 21.6572 50.0288 21.6572" fill="#F5841F"/>
<path d="M69.7155 21.0869L65.0703 16.3027V21.3245C65.0703 21.5107 65.2168 21.6611 65.399 21.6611H69.4819C69.7749 21.6611 69.9214 21.3007 69.7155 21.0882" fill="#3CB44A"/>
<path d="M65.0677 5.42706L59.7533 0L54.5312 5.14587V16.231L59.7533 10.8528L65.0677 16.3261V5.42706Z" fill="white"/>
<path d="M59.5099 19.2723L57.2526 21.4981C57.1602 21.5878 57.1285 21.7238 57.1708 21.8453L59.4267 28.3984C59.531 28.7007 59.96 28.6981 60.0603 28.3944L62.2397 21.8387C62.2793 21.7199 62.2489 21.5892 62.1605 21.4994L59.9824 19.2763C59.8531 19.1443 59.6405 19.1416 59.5085 19.2723" fill="white"/>
</svg>
